<?xml version="1.0" standalone="no"?>
<!DOCTYPE svg PUBLIC "-//W3C//DTD SVG 20010904//EN"
 "http://www.w3.org/TR/2001/REC-SVG-20010904/DTD/svg10.dtd">
<svg version="1.0" xmlns="http://www.w3.org/2000/svg"
 width="662.000000pt" height="662.000000pt" viewBox="0 0 662.000000 662.000000"
 preserveAspectRatio="xMidYMid meet">
<metadata>
Created by potrace 1.14, written by Peter Selinger 2001-2017
</metadata>
<g transform="translate(0.000000,662.000000) scale(0.100000,-0.100000)"
fill="#000000" stroke="none">
<path d="M3547 5184 c-2 -3 -51 -5 -108 -6 -268 -2 -622 -124 -919 -317 -30
-19 -57 -38 -60 -41 -3 -3 -25 -21 -50 -40 -120 -93 -245 -221 -340 -348 -28
-37 -55 -72 -60 -79 -6 -7 -10 -15 -10 -17 0 -3 -15 -29 -34 -58 -69 -109
-178 -351 -193 -431 -3 -18 -9 -39 -14 -48 -10 -20 -38 -150 -45 -209 -3 -25
-9 -78 -15 -118 -18 -143 -2 -396 36 -570 53 -246 238 -631 363 -758 6 -7 12
-15 12 -18 0 -17 209 -229 280 -283 30 -23 64 -49 75 -58 29 -22 143 -95 149
-95 3 0 22 -12 43 -26 69 -47 326 -154 408 -170 6 -1 37 -9 70 -17 54 -14 147
-33 215 -43 57 -9 439 -4 495 7 33 6 81 15 108 19 54 10 63 13 237 71 119 39
212 80 290 128 19 11 42 24 50 28 47 21 259 178 332 246 55 50 75 95 58 126
-6 12 -285 297 -621 633 l-610 612 190 191 c104 104 381 383 615 618 234 235
429 439 432 452 8 31 -7 56 -67 112 -44 41 -83 72 -229 181 -48 35 -176 108
-260 148 -98 47 -340 130 -405 140 -11 2 -51 10 -90 18 -38 8 -101 15 -140 15
-38 0 -72 0 -75 1 -15 4 -109 7 -113 4z m258 -163 c71 -12 153 -28 190 -35 11
-3 69 -21 128 -40 122 -40 227 -88 322 -146 36 -22 70 -40 75 -40 6 0 10 -5
10 -10 0 -6 8 -14 18 -17 17 -6 93 -66 161 -125 32 -29 33 -30 15 -48 -11 -10
-288 -288 -616 -618 -572 -573 -598 -601 -598 -636 0 -42 -31 -9 757 -798
l476 -476 -34 -30 c-76 -67 -193 -152 -209 -152 -5 0 -10 -4 -10 -9 0 -5 -10
-13 -22 -17 -13 -4 -25 -10 -28 -14 -9 -13 -165 -89 -236 -116 -143 -53 -284
-89 -434 -111 -54 -8 -338 -7 -405 1 -86 10 -295 62 -389 97 -231 85 -436 218
-616 398 -109 110 -164 175 -233 281 -188 290 -277 590 -277 943 0 182 15 302
57 457 14 52 28 105 30 118 3 12 9 25 14 28 5 3 9 13 9 22 0 18 130 281 150
304 6 7 32 42 57 78 162 228 395 426 638 544 161 79 369 145 505 161 30 4 73
10 95 14 59 11 319 6 400 -8z"/>
<path d="M3070 4538 c-104 -34 -178 -93 -226 -181 -121 -222 -13 -481 234
-562 156 -51 365 38 445 189 95 179 46 371 -128 506 -77 60 -225 82 -325 48z
m219 -155 c82 -39 121 -106 121 -211 0 -84 -14 -123 -61 -171 -60 -60 -131
-79 -226 -60 -35 7 -63 16 -63 20 0 4 -8 10 -18 14 -30 9 -79 86 -91 143 -16
77 5 158 57 219 23 26 92 64 104 57 4 -3 8 -2 8 3 0 14 131 3 169 -14z"/>
</g>
</svg>
